<?xml version="1.0" encoding="UTF-8"?>
<svg xmlns="http://www.w3.org/2000/svg" xmlns:xlink="http://www.w3.org/1999/xlink" width="160px" height="160px" viewBox="0 0 160 160" version="1.1">
<g id="surface1">
<path style=" stroke:none;fill-rule:nonzero;fill:rgb(0%,0%,0%);fill-opacity:1;" d="M 105 110 C 135.375 110 160 85.375 160 55 C 160 24.625 135.375 0 105 0 C 74.625 0 50 24.625 50 55 C 50 60.84375 50.90625 66.5 52.59375 71.78125 L 2.1875 122.1875 C 0.78125 123.59375 0 125.5 0 127.5 L 0 152.5 C 0 156.65625 3.34375 160 7.5 160 L 32.5 160 C 36.65625 160 40 156.65625 40 152.5 L 40 140 L 52.5 140 C 56.65625 140 60 136.65625 60 132.5 L 60 120 L 72.5 120 C 74.5 120 76.40625 119.21875 77.8125 117.8125 L 88.21875 107.40625 C 93.5 109.09375 99.15625 110 105 110 Z M 117.5 30 C 124.402344 30 130 35.597656 130 42.5 C 130 49.402344 124.402344 55 117.5 55 C 110.597656 55 105 49.402344 105 42.5 C 105 35.597656 110.597656 30 117.5 30 Z M 117.5 30 "/>
</g>
</svg>
