<?xml version="1.0" encoding="UTF-8"?>
<svg xmlns="http://www.w3.org/2000/svg" xmlns:xlink="http://www.w3.org/1999/xlink" width="160px" height="160px" viewBox="0 0 160 160" version="1.1">
<g id="surface1">
<path style=" stroke:none;fill-rule:nonzero;fill:rgb(0%,0%,0%);fill-opacity:1;" d="M 15 80 C 15 44.09375 44.09375 15 80 15 C 99.71875 15 117.375 23.78125 129.3125 37.65625 C 132 40.8125 136.75 41.15625 139.875 38.46875 C 143 35.78125 143.375 31.03125 140.6875 27.90625 C 126.03125 10.8125 104.28125 0 80 0 C 35.8125 0 0 35.8125 0 80 L 0 92.5 C 0 96.65625 3.34375 100 7.5 100 C 11.65625 100 15 96.65625 15 92.5 Z M 158.28125 63.46875 C 157.4375 59.40625 153.4375 56.8125 149.40625 57.6875 C 145.375 58.5625 142.75 62.53125 143.625 66.5625 C 144.53125 70.90625 145.03125 75.40625 145.03125 80.03125 L 145.03125 92.53125 C 145.03125 96.6875 148.375 100.03125 152.53125 100.03125 C 156.6875 100.03125 160.03125 96.6875 160.03125 92.53125 L 160.03125 80 C 160.03125 74.34375 159.4375 68.8125 158.3125 63.46875 Z M 80 25 C 74.0625 25 68.3125 25.9375 62.96875 27.6875 C 58.21875 29.25 57.125 35.09375 60.375 38.90625 C 62.59375 41.5 66.25 42.28125 69.5625 41.375 C 72.875 40.46875 76.375 40 80 40 C 102.09375 40 120 57.90625 120 80 L 120 87.78125 C 120 95.65625 119.53125 103.5 118.625 111.3125 C 118.09375 115.875 121.5625 120 126.1875 120 C 129.875 120 133.03125 117.3125 133.46875 113.65625 C 134.5 105.09375 135.03125 96.46875 135.03125 87.8125 L 135.03125 80 C 135.03125 49.625 110.40625 25 80.03125 25 Z M 47.09375 46.46875 C 44.25 43.15625 39.1875 42.90625 36.5 46.34375 C 29.28125 55.625 25 67.3125 25 80 L 25 87.78125 C 25 95.34375 24.1875 102.90625 22.5625 110.25 C 21.5 115.125 25.03125 120 30.03125 120 C 33.3125 120 36.25 117.8125 36.96875 114.59375 C 38.96875 105.8125 40 96.84375 40 87.78125 L 40 80 C 40 71.5 42.65625 63.625 47.15625 57.15625 C 49.40625 53.90625 49.65625 49.46875 47.09375 46.46875 Z M 80 50 C 63.4375 50 50 63.4375 50 80 L 50 87.78125 C 50 99 48.5625 110.125 45.6875 120.9375 C 44.5 125.40625 47.78125 130 52.40625 130 C 55.375 130 58 128.0625 58.78125 125.1875 C 62.0625 113 63.75 100.4375 63.75 87.78125 L 63.75 80 C 63.75 71.03125 71.03125 63.75 80 63.75 C 88.96875 63.75 96.25 71.03125 96.25 80 L 96.25 87.78125 C 96.25 99.125 95.15625 110.40625 93 121.5 C 92.15625 125.84375 95.40625 130 99.8125 130 C 103 130 105.75 127.8125 106.375 124.6875 C 108.78125 112.5625 110 100.21875 110 87.78125 L 110 80 C 110 63.4375 96.5625 50 80 50 Z M 87.5 80 C 87.5 75.84375 84.15625 72.5 80 72.5 C 75.84375 72.5 72.5 75.84375 72.5 80 L 72.5 87.78125 C 72.5 106.5 69.0625 125.0625 62.34375 142.53125 L 60.5 147.3125 C 59 151.1875 60.9375 155.53125 64.8125 157 C 68.6875 158.46875 73.03125 156.5625 74.5 152.6875 L 76.34375 147.90625 C 83.71875 128.71875 87.5 108.34375 87.5 87.78125 Z M 87.5 80 "/>
</g>
</svg>
