<?xml version="1.0" encoding="UTF-8"?>
<svg xmlns="http://www.w3.org/2000/svg" xmlns:xlink="http://www.w3.org/1999/xlink" width="160px" height="160px" viewBox="0 0 160 160" version="1.1">
<g id="surface1">
<path style=" stroke:none;fill-rule:nonzero;fill:rgb(0%,0%,0%);fill-opacity:1;" d="M 56 80 C 73.671875 80 88 62.089844 88 40 C 88 17.910156 73.671875 0 56 0 C 38.328125 0 24 17.910156 24 40 C 24 62.089844 38.328125 80 56 80 Z M 44.574219 95 C 19.949219 95 0 119.9375 0 150.71875 C 0 155.84375 3.324219 160 7.425781 160 L 98.148438 160 C 96.800781 157.0625 96 153.65625 96 150 L 96 110 C 96 109.34375 96.023438 108.6875 96.074219 108.03125 C 88.324219 99.90625 78.324219 95 67.425781 95 Z M 132 75 C 136.425781 75 140 79.46875 140 85 L 140 100 L 124 100 L 124 85 C 124 79.46875 127.574219 75 132 75 Z M 112 85 L 112 100 C 107.574219 100 104 104.46875 104 110 L 104 150 C 104 155.53125 107.574219 160 112 160 L 152 160 C 156.425781 160 160 155.53125 160 150 L 160 110 C 160 104.46875 156.425781 100 152 100 L 152 85 C 152 71.1875 143.050781 60 132 60 C 120.949219 60 112 71.1875 112 85 Z M 112 85 "/>
</g>
</svg>
